# xmcd
#
# Track frame offsets: 
#        150
#        19285
#        33040
#        58212
#        78012
#        99417
#        114417
#        132280
#        152067
#        168815
#        183325
#        200295
#        221247
#
# Disc length: 3143 seconds
#
# Revision: 0
# Processed by: cddbd v1.5.2PL0 Copyright (c) Steve Scherf et al.
# Submitted via: ExactAudioCopy v0.99pb3
#
DISCID=a30c450d
DTITLE=Various Artist - A Tribute To Howlin' Wolf
DYEAR=1998
DGENRE=Blues
TTITLE0=01. Taj Mahal - Saddle My Pony
TTITLE1=02. Christine Ohlman and Eddie Shaw - Howlin' For My Darling
TTITLE2=03. Kenny Neal - The Red Rooster
TTITLE3=04. Colin Linden - Just Like I Treat You
TTITLE4=05. Eddie Shaw - Built For Comfort
TTITLE5=06. Debbie Davies - Ooh Baby (Hold Me)
TTITLE6=07. Cub Koda - Riding In The Moonlight
TTITLE7=08. Ronnie Hawkins - Back Door Man
TTITLE8=09. Sam Lay - Baby How Long
TTITLE9=10. Hubert Sumlin - Killing Floor
TTITLE10=11. Colin James - Howlin' Wolf Boogie
TTITLE11=12. Henry Grey - Smokestack Lightnin'
TTITLE12=13. Lucinda Williams - Come To Me Baby
EXTD=
EXTT0=
EXTT1=
EXTT2=
EXTT3=
EXTT4=
EXTT5=
EXTT6=
EXTT7=
EXTT8=
EXTT9=
EXTT10=
EXTT11=
EXTT12=
PLAYORDER=
